<?xml version="1.0" encoding="utf-8"?>
<!-- Generator: Adobe Illustrator 15.1.0, SVG Export Plug-In . SVG Version: 6.00 Build 0)  -->
<!DOCTYPE svg PUBLIC "-//W3C//DTD SVG 1.1//EN" "http://www.w3.org/Graphics/SVG/1.1/DTD/svg11.dtd">
<svg version="1.1" id="Layer_1" xmlns="http://www.w3.org/2000/svg" xmlns:xlink="http://www.w3.org/1999/xlink" x="0px" y="0px"
	 width="100px" height="81.208px" viewBox="0 0 100 81.208" enable-background="new 0 0 100 81.208" xml:space="preserve">
<g>
	<path fill="#010101" d="M48.448,54.572c-0.667,0.871-1.589,1.715-2.843,2.411c0.319,0.333,1.207,1.17,2.459,1.638
		c1.545,0.578,3.562,0.65,5.961-1.646c-1.248-0.696-2.166-1.536-2.83-2.403c-0.702-0.916-1.121-1.856-1.372-2.666
		C49.571,52.716,49.15,53.655,48.448,54.572z"/>
	<path fill="#010101" d="M48.988,63.129c-0.438,0.599-1.053,1.178-1.906,1.644c0.266,0.26,0.816,0.733,1.562,1.013
		c1.016,0.379,2.338,0.436,3.906-1.018c-0.848-0.466-1.461-1.043-1.896-1.639c-0.423-0.579-0.677-1.172-0.832-1.686
		C49.668,61.957,49.411,62.549,48.988,63.129z"/>
	<path fill="#010101" d="M94.406,17.018c0,0-11.809-4.67-24.76-6.793c-12.652-2.074-7.893,9.194-7.666,9.717
		c-1.871-1.288-3.955-2.444-6.256-3.445h0.502c0,0,6.247-8.822-7.045-16.497v0C36.088,7.56,42.48,16.497,42.48,16.497h0.582
		c-1.916,0.89-3.666,1.916-5.246,3.058c0.797-2.09,3.668-11.213-7.819-9.33C17.046,12.348,5.58,17.018,5.58,17.018
		c-8.28,2.76-8.896,8.772,8.917,5.521c17.532-3.201,16.988-4.672,16.988-4.672s4.878-1.217,0.709,7.088
		c-8.656,11.138-7.147,27.809,4.61,41.405l-2.4,14.748c4.726,0.967,7.643-5.225,7.196-9.894c2.293,2.042,4.85,3.978,7.674,5.771
		c3.396-1.962,6.439-4.082,9.131-6.315c-0.742,4.714,2.213,11.444,7.126,10.438L63.125,66.33c-0.021-0.002-0.04-0.002-0.06-0.004
		c13.195-13.842,14.372-30.688,4.144-41.866c-3.73-7.762,0.949-6.594,0.949-6.594s-0.715,1.643,17.332,4.672
		C103.348,25.535,102.687,19.777,94.406,17.018z M68.164,34.389c0.329-0.03,0.654,0.25,0.672,0.58
		c0.02,0.33-0.271,0.645-0.602,0.652c-5.994,0.337-10.106-0.516-12.918-1.863c-1.604,1.548-3.193,2.263-4.64,2.467
		c0.04,0.782,0.304,3.057,1.995,5.266c2.086,2.724,6.35,5.396,15.484,4.792c0.35-0.022,0.689,0.275,0.712,0.625
		c0.023,0.35-0.274,0.689-0.624,0.713c-4.881,0.322-8.529-0.285-11.244-1.375c-0.02,0.023-0.041,0.045-0.064,0.064
		c-2.242,2.242-4.473,3.174-6.46,3.352c0,0.008,0,0.016,0,0.023c0,0-0.066,2.169,1.536,4.262c1.602,2.092,4.875,4.144,11.892,3.681
		c0.271-0.021,0.535,0.208,0.553,0.479s-0.215,0.532-0.485,0.547c-3.929,0.259-6.818-0.263-8.931-1.176
		c-0.02,0.03-0.042,0.058-0.067,0.083c-1.647,1.647-3.285,2.316-4.741,2.43c-0.001,0.015-0.036,1.414,0.944,2.758
		c0.986,1.35,2.988,2.669,7.293,2.371c0.174-0.021,0.35,0.123,0.361,0.298s-0.141,0.343-0.316,0.347
		c-2.277,0.157-3.986-0.136-5.265-0.664c-1.81,1.794-3.598,1.835-4.856,1.364c-1.094-0.409-1.822-1.163-2.001-1.361
		c-1.278,0.527-2.987,0.818-5.263,0.661c-0.174-0.004-0.328-0.172-0.315-0.347s0.188-0.319,0.361-0.298
		c4.304,0.298,6.308-1.021,7.292-2.371c0.965-1.322,0.947-2.693,0.945-2.75c-0.625-0.037-1.206-0.173-1.727-0.367
		c-1.887-0.705-3.047-2.105-3.047-2.105c-0.013-0.016-0.024-0.031-0.035-0.048c-2.113,0.913-5.002,1.435-8.93,1.176
		c-0.271-0.015-0.503-0.276-0.486-0.547s0.283-0.5,0.553-0.479c7.016,0.463,10.29-1.589,11.893-3.681
		c1.602-2.093,1.535-4.262,1.535-4.262c0-0.004,0-0.009,0-0.014c-0.83-0.06-1.602-0.242-2.295-0.502
		c-2.607-0.975-4.211-2.908-4.211-2.908c-0.006-0.006-0.011-0.012-0.016-0.019c-2.715,1.091-6.364,1.7-11.248,1.378
		c-0.35-0.023-0.646-0.363-0.624-0.713c0.023-0.35,0.362-0.647,0.712-0.625c9.134,0.604,13.398-2.068,15.484-4.792
		c1.681-2.195,1.953-4.454,1.995-5.25c-0.533-0.066-1.033-0.197-1.49-0.368c-1.623-0.606-2.745-1.67-3.16-2.108
		c-2.812,1.344-6.922,2.192-12.907,1.855c-0.33-0.008-0.621-0.323-0.603-0.652s0.343-0.61,0.672-0.58
		c9.165,0.516,13.485-1.79,15.565-4.103c1.641-1.825,1.924-3.662,1.971-4.358c-0.434-0.06-0.841-0.166-1.215-0.306
		c-1.785-0.667-2.883-1.99-2.883-1.99c-0.127-0.146-0.16-0.368-0.08-0.545s0.268-0.299,0.461-0.301
		c0.153-0.002,0.307,0.069,0.402,0.188c0,0,0.959,1.131,2.457,1.691c0.461,0.172,0.967,0.297,1.515,0.319
		c0.11,0.004,0.22,0.004,0.333,0c0.004,0,0.007,0,0.011,0c0.001,0,0.001,0,0.003,0c1.153-0.046,2.479-0.57,3.952-2.043
		c0.093-0.099,0.227-0.159,0.362-0.161c0.205-0.004,0.406,0.128,0.483,0.318c0.077,0.189,0.026,0.425-0.124,0.565
		c-1.402,1.403-2.797,2.055-4.064,2.25c0.043,0.686,0.319,2.535,1.971,4.371C54.679,32.599,58.999,34.905,68.164,34.389z"/>
	<path fill="#010101" d="M49.823,38.836c-0.328,1.054-0.877,2.275-1.791,3.469s-2.196,2.35-3.963,3.283
		c0.503,0.507,1.696,1.576,3.327,2.186c2.117,0.792,4.878,0.901,8.156-2.195c-1.756-0.933-3.031-2.085-3.941-3.273
		C50.697,41.112,50.151,39.889,49.823,38.836L49.823,38.836z"/>
	<path fill="#010101" d="M51.682,31.114c-0.977-1.085-1.535-2.209-1.858-3.158c-0.323,0.949-0.885,2.072-1.86,3.158
		c-0.654,0.727-1.49,1.434-2.551,2.067c0.462,0.438,1.333,1.153,2.48,1.582c1.647,0.616,3.787,0.709,6.32-1.595
		C53.161,32.538,52.33,31.836,51.682,31.114z"/>
</g>
</svg>
