<?xml version="1.0" encoding="utf-8"?>
<!-- Generator: Adobe Illustrator 16.0.0, SVG Export Plug-In . SVG Version: 6.00 Build 0)  -->
<!DOCTYPE svg PUBLIC "-//W3C//DTD SVG 1.1//EN" "http://www.w3.org/Graphics/SVG/1.1/DTD/svg11.dtd">
<svg version="1.1" id="Layer_1" xmlns="http://www.w3.org/2000/svg" xmlns:xlink="http://www.w3.org/1999/xlink" x="0px" y="0px"
	 width="512px" height="512px" viewBox="0 0 512 512" enable-background="new 0 0 512 512" xml:space="preserve">
<g>
	<g>
		<path d="M255.124,265.307c-0.277,0.459-0.827,1.183-1.22,1.607c-0.394,0.426-1.6,1.634-1.301,1.924s2.392,1.079,3.274,1.24
			s3.325-2.087,2.789-2.467c-0.537-0.38-1.8-1.846-2.078-2.307C256.31,264.845,255.402,264.847,255.124,265.307z"/>
		<path fill="none" stroke="#000000" stroke-miterlimit="10" d="M255.124,265.307c-0.277,0.459-0.827,1.183-1.22,1.607
			c-0.394,0.426-1.6,1.634-1.301,1.924s2.392,1.079,3.274,1.24s3.325-2.087,2.789-2.467c-0.537-0.38-1.8-1.846-2.078-2.307
			C256.31,264.845,255.402,264.847,255.124,265.307z"/>
	</g>
	<g>
		<path d="M255.411,273.316c-0.169,0.29-0.52,0.766-0.78,1.058c-0.26,0.292-1.076,1.099-0.874,1.28
			c0.202,0.182,1.512,0.668,2.092,0.776c0.579,0.108,2.167-1.321,1.806-1.58s-1.186-1.243-1.354-1.533
			S255.58,273.027,255.411,273.316z"/>
		<path fill="none" stroke="#000000" stroke-miterlimit="10" d="M255.411,273.316c-0.169,0.29-0.52,0.766-0.78,1.058
			c-0.26,0.292-1.076,1.099-0.874,1.28c0.202,0.182,1.512,0.668,2.092,0.776c0.579,0.108,2.167-1.321,1.806-1.58
			s-1.186-1.243-1.354-1.533S255.58,273.027,255.411,273.316z"/>
	</g>
	<g>
		<path d="M303.232,239.233c-3.982-3.793-11.426-8.553-16.54-10.576c0,0-1.33-0.526-12.99-2.438
			c-0.813-0.134-1.547-0.206-2.207-0.224c-0.219-0.007-0.219-0.007-0.219-0.007c-0.229,0.003-1.73,0.449-3.337,0.991
			c-1.607,0.542-2.08,4.064-2.062,4.439c0,0,0,0,0.043,0.331c0.214,1.647,0.214,1.647,0.214,1.647
			c0.367,0.864-0.134,1.075-1.112,0.47c-0.979-0.605-3.751-2.002-3.627-2.001c0.125,0,0.385-0.224,0.578-0.498c0,0,0,0,0.34-0.852
			c0.085-0.213,0.169-0.447,0.239-0.704c0.465-2.849,0.465-2.849,0.465-2.849c-1.191-2.948-2.324-5.555-2.517-5.795
			c0,0,0,0-0.193-0.218c-1.159-1.309-1.159-1.309-1.159-1.309c-2.128-1.445-5.227,0.714-6.885,4.798s-2.898,7.426-2.754,7.425
			s-0.48,0.387-1.388,0.862s-1.673-2.386,0.037-7.613c0,0,0.193-0.589-10.147,1.105c-11.661,1.912-12.718,2.343-12.718,2.343
			c-5.094,2.075-12.466,6.932-16.382,10.793c0,0-0.888,0.875,15.147-2.051c15.782-2.882,15.782-2.882,15.782-2.882
			c-0.269-0.728,0.499-1.57,1.706-1.871c1.208-0.301-2.678,11.287-4.046,16.614l2.625,18.427c2.208,5.038,3.528,12.146,2.934,15.797
			c-0.594,3.65,0.468,5.579,2.361,4.286s4.021-5.748,5.222-4.763s6.028,2.577,7.623,1.567c1.594-1.011,5.77-1.528,6.317,1.304
			c0.549,2.832,4.933,1.25,4.336-2.408c-0.596-3.658-1.091-6.651-1.101-6.651c-0.01,0.001,1.873-4.077,4.206-9.059l2.562-19.115
			c-1.69-5.234-2.881-10.852-2.646-12.484s0.137-2.303-0.217-1.491c0,0,0,0,16.245,2.729
			C304.04,240.002,303.232,239.233,303.232,239.233z M266.299,247.166c3.338,0.443,6.202,0.857,6.363,0.919
			c0.162,0.062,0.256,0.541,0.188,0.7s-2.467,0.192-4.969,0.064s-7.727-0.987-8.517-0.427c-0.791,0.56-2.679,1.822-2.604,2.579
			s2.945,4.458,4.518,5.794s11.36,1.996,11.701,2.131c0,0,0,0,0.021,0.317c0.021,0.314,0.021,0.314,0.021,0.314
			c-0.32,0.179-2.311,0.268-4.422,0.197s-6.292-1.1-6.302-1.089s-0.944,0.68-2.052,1.466s-3.801,1.593-3.801,1.597
			c0,0.003-0.014,0.452-0.03,0.989c-0.017,0.537,2.399,3.7,3.606,4.726c1.207,1.026,8.727,1.532,8.991,1.636c0,0,0,0,0.018,0.244
			c0.017,0.244,0.017,0.244,0.017,0.244c-0.25,0.136-1.835,0.194-3.523,0.13c-1.688-0.065-4.978-0.93-4.988-0.915
			s-0.707,0.518-1.521,1.091c-0.813,0.574-2.797,1.432-2.806,1.782c-0.01,0.351,1.472,2.386,2.211,3.047s5.361,0.983,5.535,1.044
			c0,0,0,0,0.011,0.158c0.01,0.156,0.01,0.156,0.01,0.156c-0.162,0.086-1.102,0.129-2.089,0.095s-3.673-0.164-4.564,0.29
			c-0.891,0.453-3.121,0.167-3.572-0.121c-0.452-0.289-1.586-0.536-2.326-0.334c-0.739,0.202-3.526,0.157-3.688,0.07
			c0,0,0,0,0.011-0.154c0.012-0.158,0.012-0.158,0.012-0.158c0.171-0.062,1.59-0.319,3.153-0.572
			c1.562-0.252,3.918-2.22,4.152-2.886s0.18-1.299-0.119-1.341c-0.299-0.043-1.63-0.679-2.384-1.2s-1.376-0.954-1.382-0.962
			c-0.005-0.008-1.033,0.261-2.271,0.616s-5.992,0.302-6.241,0.165c0,0,0,0,0.013-0.242c0.018-0.248,0.018-0.248,0.018-0.248
			c0.266-0.102,2.567-0.507,5.114-0.9s6.384-3.463,6.765-4.518c0.38-1.055,0.691-1.92,0.691-1.923s-0.324-0.056-0.72-0.116
			c-0.396-0.06-2.198-0.933-3.241-1.652c-1.042-0.72-1.897-1.311-1.9-1.313s-1.298,0.331-2.874,0.752
			c-1.575,0.421-7.391,0.402-7.551,0.313s-0.199-0.609-0.109-0.77c0.09-0.161,3.192-0.689,6.509-1.202
			c3.317-0.514,8.305-4.287,8.788-5.389s0.707-2.761,0.451-2.81c-0.255-0.049-1.431-0.581-2.111-0.994
			c-0.68-0.413-3.011-0.704-4.725-0.161s-8.755,0.553-9.062,0.394c0,0,0,0,0.014-0.296c0.018-0.296,0.018-0.296,0.018-0.296
			c0.324-0.125,3.32-0.589,6.658-1.032c3.337-0.443,8.332-3.63,8.809-4.537c0.476-0.906,0.737-2.308,0.529-2.349
			s-1.299-0.604-2.013-1.097s-1.362-1.044-1.441-1.226c0,0,0,0,0.072-0.159c0.072-0.158,0.072-0.158,0.072-0.158
			c0.188-0.062,0.404-0.099,0.48-0.082s0.418,0.367,0.656,0.647c0.238,0.28,1.975,1.073,2.215,1.147
			c0.24,0.074,0.974,0.155,1.028,0.156s0.203-0.002,0.207-0.002c0,0,0,0,0.003,0.001c0.003,0,0.003,0,0.003,0
			c0,0,0.503-0.116,1.116-0.257c0.614-0.141,2.486-1.614,2.542-1.653c0.057-0.04,0.308-0.048,0.408-0.016s0.257,0.314,0.264,0.419
			c0.006,0.105-0.69,0.733-1.383,1.242c-0.691,0.509-2.334,1.615-2.255,2.242S262.96,246.723,266.299,247.166z"/>
		<path fill="none" stroke="#000000" stroke-miterlimit="10" d="M303.232,239.233c-3.982-3.793-11.426-8.553-16.54-10.576
			c0,0-1.33-0.526-12.99-2.438c-0.813-0.134-1.547-0.206-2.207-0.224c-0.219-0.007-0.219-0.007-0.219-0.007
			c-0.229,0.003-1.73,0.449-3.337,0.991c-1.607,0.542-2.08,4.064-2.062,4.439c0,0,0,0,0.043,0.331
			c0.214,1.647,0.214,1.647,0.214,1.647c0.367,0.864-0.134,1.075-1.112,0.47c-0.979-0.605-3.751-2.002-3.627-2.001
			c0.125,0,0.385-0.224,0.578-0.498c0,0,0,0,0.34-0.852c0.085-0.213,0.169-0.447,0.239-0.704c0.465-2.849,0.465-2.849,0.465-2.849
			c-1.191-2.948-2.324-5.555-2.517-5.795c0,0,0,0-0.193-0.218c-1.159-1.309-1.159-1.309-1.159-1.309
			c-2.128-1.445-5.227,0.714-6.885,4.798s-2.898,7.426-2.754,7.425s-0.48,0.387-1.388,0.862s-1.673-2.386,0.037-7.613
			c0,0,0.193-0.589-10.147,1.105c-11.661,1.912-12.718,2.343-12.718,2.343c-5.094,2.075-12.466,6.932-16.382,10.793
			c0,0-0.888,0.875,15.147-2.051c15.782-2.882,15.782-2.882,15.782-2.882c-0.269-0.728,0.499-1.57,1.706-1.871
			c1.208-0.301-2.678,11.287-4.046,16.614l2.625,18.427c2.208,5.038,3.528,12.146,2.934,15.797c-0.594,3.65,0.468,5.579,2.361,4.286
			s4.021-5.748,5.222-4.763s6.028,2.577,7.623,1.567c1.594-1.011,5.77-1.528,6.317,1.304c0.549,2.832,4.933,1.25,4.336-2.408
			c-0.596-3.658-1.091-6.651-1.101-6.651c-0.01,0.001,1.873-4.077,4.206-9.059l2.562-19.115c-1.69-5.234-2.881-10.852-2.646-12.484
			s0.137-2.303-0.217-1.491c0,0,0,0,16.245,2.729C304.04,240.002,303.232,239.233,303.232,239.233z M266.299,247.166
			c3.338,0.443,6.202,0.857,6.363,0.919c0.162,0.062,0.256,0.541,0.188,0.7s-2.467,0.192-4.969,0.064s-7.727-0.987-8.517-0.427
			c-0.791,0.56-2.679,1.822-2.604,2.579s2.945,4.458,4.518,5.794s11.36,1.996,11.701,2.131c0,0,0,0,0.021,0.317
			c0.021,0.314,0.021,0.314,0.021,0.314c-0.32,0.179-2.311,0.268-4.422,0.197s-6.292-1.1-6.302-1.089s-0.944,0.68-2.052,1.466
			s-3.801,1.593-3.801,1.597c0,0.003-0.014,0.452-0.03,0.989c-0.017,0.537,2.399,3.7,3.606,4.726
			c1.207,1.026,8.727,1.532,8.991,1.636c0,0,0,0,0.018,0.244c0.017,0.244,0.017,0.244,0.017,0.244
			c-0.25,0.136-1.835,0.194-3.523,0.13c-1.688-0.065-4.978-0.93-4.988-0.915s-0.707,0.518-1.521,1.091
			c-0.813,0.574-2.797,1.432-2.806,1.782c-0.01,0.351,1.472,2.386,2.211,3.047s5.361,0.983,5.535,1.044c0,0,0,0,0.011,0.158
			c0.01,0.156,0.01,0.156,0.01,0.156c-0.162,0.086-1.102,0.129-2.089,0.095s-3.673-0.164-4.564,0.29
			c-0.891,0.453-3.121,0.167-3.572-0.121c-0.452-0.289-1.586-0.536-2.326-0.334c-0.739,0.202-3.526,0.157-3.688,0.07
			c0,0,0,0,0.011-0.154c0.012-0.158,0.012-0.158,0.012-0.158c0.171-0.062,1.59-0.319,3.153-0.572
			c1.562-0.252,3.918-2.22,4.152-2.886s0.18-1.299-0.119-1.341c-0.299-0.043-1.63-0.679-2.384-1.2s-1.376-0.954-1.382-0.962
			c-0.005-0.008-1.033,0.261-2.271,0.616s-5.992,0.302-6.241,0.165c0,0,0,0,0.013-0.242c0.018-0.248,0.018-0.248,0.018-0.248
			c0.266-0.102,2.567-0.507,5.114-0.9s6.384-3.463,6.765-4.518c0.38-1.055,0.691-1.92,0.691-1.923s-0.324-0.056-0.72-0.116
			c-0.396-0.06-2.198-0.933-3.241-1.652c-1.042-0.72-1.897-1.311-1.9-1.313s-1.298,0.331-2.874,0.752
			c-1.575,0.421-7.391,0.402-7.551,0.313s-0.199-0.609-0.109-0.77c0.09-0.161,3.192-0.689,6.509-1.202
			c3.317-0.514,8.305-4.287,8.788-5.389s0.707-2.761,0.451-2.81c-0.255-0.049-1.431-0.581-2.111-0.994
			c-0.68-0.413-3.011-0.704-4.725-0.161s-8.755,0.553-9.062,0.394c0,0,0,0,0.014-0.296c0.018-0.296,0.018-0.296,0.018-0.296
			c0.324-0.125,3.32-0.589,6.658-1.032c3.337-0.443,8.332-3.63,8.809-4.537c0.476-0.906,0.737-2.308,0.529-2.349
			s-1.299-0.604-2.013-1.097s-1.362-1.044-1.441-1.226c0,0,0,0,0.072-0.159c0.072-0.158,0.072-0.158,0.072-0.158
			c0.188-0.062,0.404-0.099,0.48-0.082s0.418,0.367,0.656,0.647c0.238,0.28,1.975,1.073,2.215,1.147
			c0.24,0.074,0.974,0.155,1.028,0.156s0.203-0.002,0.207-0.002c0,0,0,0,0.003,0.001c0.003,0,0.003,0,0.003,0
			c0,0,0.503-0.116,1.116-0.257c0.614-0.141,2.486-1.614,2.542-1.653c0.057-0.04,0.308-0.048,0.408-0.016s0.257,0.314,0.264,0.419
			c0.006,0.105-0.69,0.733-1.383,1.242c-0.691,0.509-2.334,1.615-2.255,2.242S262.96,246.723,266.299,247.166z"/>
	</g>
	<g>
		<path d="M256.251,253c-0.217-0.563-0.572-0.564-0.789-0.001s-1.663,2.575-2.207,3.157c-0.543,0.582-2.235,2.218-1.815,2.608
			c0.419,0.391,3.221,1.44,4.428,1.663c1.208,0.223,4.532-2.804,3.782-3.319C258.9,256.591,256.467,253.563,256.251,253z"/>
		<path fill="none" stroke="#000000" stroke-miterlimit="10" d="M256.251,253c-0.217-0.563-0.572-0.564-0.789-0.001
			s-1.663,2.575-2.207,3.157c-0.543,0.582-2.235,2.218-1.815,2.608c0.419,0.391,3.221,1.44,4.428,1.663
			c1.208,0.223,4.532-2.804,3.782-3.319C258.9,256.591,256.467,253.563,256.251,253z"/>
	</g>
	<g>
		<path d="M258.195,245.666c-0.366-0.353-0.978-1.088-1.357-1.636c-0.379-0.547-1.159-1.429-1.378-0.916
			c-0.219,0.513-1.579,2.201-1.947,2.556s-1.086,1.683-0.427,2.253c0,0,0,0,1.033,0.387c1.482,0.554,1.482,0.554,1.482,0.554
			C257.915,247.768,258.562,246.018,258.195,245.666z"/>
		<path fill="none" stroke="#000000" stroke-miterlimit="10" d="M258.195,245.666c-0.366-0.353-0.978-1.088-1.357-1.636
			c-0.379-0.547-1.159-1.429-1.378-0.916c-0.219,0.513-1.579,2.201-1.947,2.556s-1.086,1.683-0.427,2.253c0,0,0,0,1.033,0.387
			c1.482,0.554,1.482,0.554,1.482,0.554C257.915,247.768,258.562,246.018,258.195,245.666z"/>
	</g>
</g>
</svg>
